{"glyphs":{" ":{"ha":556,"x_min":0,"x_max":0,"o":""}," ":{"ha":556,"x_min":0,"x_max":0,"o":""},"A":{"ha":1660,"x_min":25,"x_max":1633,"o":"m 1240 49 q 1078 91 1151 49 q 1004 203 1004 133 q 1044 336 1004 253 q 1111 500 1083 419 q 1117 640 1139 581 q 1097 669 1108 665 q 1068 660 1086 672 q 1028 631 1050 647 q 965 596 1006 614 q 876 571 924 578 q 532 733 624 529 q 494 849 515 771 q 450 978 472 926 q 397 1044 428 1031 q 267 1017 325 1082 q 200 878 208 953 q 220 782 194 826 q 292 704 246 738 q 396 640 339 671 q 512 579 453 610 q 619 515 571 549 q 699 437 668 482 q 729 340 729 392 q 640 168 729 238 q 435 103 550 99 q 241 167 325 107 q 113 317 157 228 q 47 509 69 406 q 27 704 25 613 q 47 863 29 796 q 290 1415 150 1225 q 590 1551 429 1604 q 1244 1454 963 1429 q 1399 1425 1331 1461 q 1503 1324 1468 1389 q 1549 1176 1538 1260 q 1531 1006 1560 1093 q 1490 783 1492 872 q 1514 619 1488 693 q 1610 418 1540 546 q 1631 317 1633 368 q 1596 217 1629 265 q 1513 132 1563 169 q 1391 72 1463 94 q 1240 49 1319 49 m 567 992 q 615 872 583 913 q 694 828 647 832 q 788 831 742 824 q 899 848 835 838 q 1013 853 964 858 q 1088 826 1058 849 q 1131 781 1117 804 q 1183 738 1144 758 q 1288 717 1222 718 q 1372 781 1349 715 q 1344 953 1401 861 q 1025 1129 1257 1094 q 990 1133 1008 1132 q 902 1171 944 1138 q 835 1242 860 1204 q 778 1313 810 1279 q 717 1350 746 1346 q 586 1250 635 1363 q 567 992 538 1138 z "},"B":{"ha":1654,"x_min":24,"x_max":1626,"o":"m 1182 65 q 1040 78 1126 65 q 858 117 953 92 q 696 190 763 143 q 629 292 629 236 q 651 349 629 322 q 674 407 674 375 q 639 490 674 469 q 529 510 604 510 q 436 489 474 510 q 400 422 399 468 q 413 378 400 397 q 442 350 426 360 q 467 321 457 340 q 469 272 476 301 q 421 201 457 218 q 317 183 385 183 q 224 191 264 183 q 158 210 185 199 q 116 243 132 222 q 92 283 100 264 q 86 331 85 301 q 92 383 88 361 q 108 440 96 404 q 128 496 119 475 q 151 553 136 517 q 174 606 167 589 q 197 663 179 618 q 221 727 214 707 q 238 782 228 747 q 251 844 249 817 q 250 896 253 871 q 188 1042 243 956 q 82 1215 133 1129 q 28 1364 31 1301 q 78 1524 24 1444 q 226 1599 132 1603 q 303 1571 272 1597 q 351 1508 335 1544 q 390 1428 367 1471 q 441 1349 414 1385 q 524 1292 468 1314 q 660 1272 581 1269 q 828 1326 731 1275 q 1008 1435 926 1376 q 1181 1542 1089 1493 q 1335 1590 1274 1590 q 1535 1468 1443 1590 q 1626 1214 1626 1346 q 1588 1022 1626 1119 q 1475 853 1549 924 q 1314 783 1401 783 q 1180 811 1272 783 q 1039 839 1088 839 q 917 805 963 839 q 872 722 872 771 q 923 627 871 663 q 1047 601 975 592 q 1180 647 1083 607 q 1335 686 1276 686 q 1450 634 1418 686 q 1489 497 1482 582 q 1425 188 1506 308 q 1182 65 1344 67 m 665 753 q 719 723 692 725 q 770 740 746 721 q 824 790 794 758 q 880 854 853 821 q 944 921 907 888 q 1018 971 982 954 q 1083 994 1040 981 q 1161 1018 1125 1007 q 1239 1050 1197 1029 q 1309 1095 1281 1071 q 1357 1159 1338 1119 q 1376 1249 1376 1199 q 1369 1316 1376 1285 q 1334 1376 1361 1347 q 1263 1406 1307 1404 q 1185 1379 1221 1407 q 1126 1314 1150 1351 q 1060 1225 1101 1276 q 974 1140 1018 1174 q 844 1070 949 1121 q 688 961 739 1019 q 647 903 663 933 q 632 830 631 872 q 665 753 633 788 m 783 389 q 868 297 810 332 q 990 250 926 261 q 1210 300 1121 228 q 1268 422 1279 357 q 1219 493 1261 465 q 1167 511 1193 511 q 1124 502 1142 511 q 1083 481 1107 493 q 1038 468 1058 469 q 961 495 1006 467 q 878 525 917 524 q 787 489 818 528 q 783 389 756 450 z "},"C":{"ha":1690,"x_min":28,"x_max":1663,"o":"m 839 40 q 568 63 689 40 q 364 125 447 86 q 219 223 281 164 q 121 344 157 282 q 63 488 85 407 q 35 641 42 568 q 28 801 28 714 q 72 1034 28 913 q 196 1267 115 1156 q 380 1467 276 1378 q 615 1609 483 1556 q 882 1663 747 1663 q 1370 1608 1219 1663 q 1521 1446 1521 1553 q 1463 1306 1521 1344 q 1257 1268 1404 1268 q 1129 1292 1189 1268 q 1024 1349 1069 1315 q 935 1417 979 1383 q 832 1474 890 1450 q 708 1497 774 1497 q 535 1446 594 1497 q 475 1274 475 1394 q 484 1170 475 1238 q 493 1074 493 1103 q 465 955 493 1014 q 396 849 436 896 q 316 756 356 801 q 248 662 276 711 q 219 567 219 613 q 272 438 219 494 q 431 381 325 381 q 570 403 476 381 q 708 426 664 426 q 790 404 757 426 q 842 349 824 382 q 876 285 860 317 q 921 231 893 253 q 990 208 949 208 q 1068 241 1036 208 q 1100 324 1100 274 q 1072 438 1100 381 q 1004 543 1044 494 q 924 640 964 592 q 856 744 883 688 q 828 858 828 801 q 912 1062 828 979 q 1174 1160 996 1144 q 1435 1090 1322 1160 q 1606 909 1549 1021 q 1663 664 1663 797 q 839 40 1663 40 z "},"D":{"ha":1689,"x_min":28,"x_max":1661,"o":"m 374 61 q 126 151 224 61 q 28 350 28 240 q 66 472 28 407 q 143 601 104 536 q 182 724 182 667 q 135 969 182 778 q 89 1297 89 1160 q 117 1400 89 1357 q 185 1463 144 1443 q 258 1490 226 1482 q 314 1499 290 1499 q 397 1478 357 1499 q 462 1433 438 1457 q 517 1388 486 1408 q 578 1367 549 1367 q 643 1388 608 1367 q 716 1438 678 1408 q 801 1496 754 1467 q 920 1546 847 1525 q 1079 1567 993 1567 q 1301 1556 1206 1567 q 1480 1516 1396 1544 q 1609 1433 1564 1488 q 1654 1297 1654 1378 q 1642 1149 1654 1215 q 1615 1047 1629 1082 q 1588 967 1600 1011 q 1576 879 1576 922 q 1619 667 1576 824 q 1661 389 1661 510 q 1531 211 1661 285 q 1207 138 1400 138 q 1035 167 1118 138 q 901 232 951 197 q 797 297 850 267 q 710 326 744 326 q 668 307 685 326 q 642 258 651 288 q 615 194 633 228 q 573 130 597 160 q 497 81 549 100 q 374 61 446 61 m 543 1038 q 572 972 543 993 q 641 947 600 951 q 723 939 682 943 q 792 914 764 935 q 821 849 821 893 q 785 763 821 819 q 750 663 750 706 q 764 597 750 628 q 812 535 778 567 q 918 484 846 503 q 1093 465 990 465 q 1374 547 1268 465 q 1481 782 1481 628 q 1449 888 1481 838 q 1374 977 1418 938 q 1285 1056 1329 1017 q 1209 1146 1240 1096 q 1178 1250 1178 1196 q 1199 1313 1178 1276 q 1221 1365 1221 1350 q 1122 1411 1221 1411 q 881 1363 1014 1411 q 645 1224 747 1314 q 543 1038 543 1135 z "},"E":{"ha":1582,"x_min":28,"x_max":1554,"o":"m 388 92 q 265 119 317 92 q 187 190 213 147 q 150 274 161 233 q 139 353 139 314 q 159 427 139 397 q 203 470 179 457 q 247 507 226 483 q 267 563 267 531 q 229 685 267 608 q 147 833 192 763 q 65 990 103 904 q 28 1138 28 1075 q 83 1378 28 1285 q 250 1471 139 1471 q 406 1449 335 1471 q 526 1397 478 1428 q 616 1334 574 1365 q 703 1281 658 1303 q 796 1260 749 1260 q 921 1291 853 1260 q 1044 1360 989 1322 q 1178 1430 1100 1399 q 1329 1461 1256 1461 q 1437 1448 1392 1461 q 1503 1418 1482 1435 q 1538 1376 1525 1401 q 1552 1336 1550 1351 q 1554 1300 1554 1321 q 1478 1110 1554 1203 q 1278 962 1401 1018 q 1026 906 1156 906 q 902 928 961 906 q 801 981 843 950 q 720 1044 758 1013 q 640 1097 682 1075 q 556 1119 597 1119 q 397 1064 465 1119 q 328 913 328 1008 q 424 782 328 782 q 594 833 476 782 q 796 885 711 885 q 888 845 850 885 q 926 763 926 806 q 894 675 926 714 q 790 636 861 636 q 714 657 746 636 q 658 699 682 678 q 607 719 633 719 q 499 564 499 719 q 703 422 499 422 q 830 445 775 422 q 919 506 885 468 q 983 588 954 543 q 1041 676 1013 632 q 1103 758 1069 721 q 1191 819 1138 796 q 1314 842 1244 842 q 1480 747 1419 842 q 1540 483 1540 653 q 1540 450 1540 461 q 1535 397 1540 439 q 1522 328 1531 356 q 1494 262 1514 301 q 1448 198 1475 222 q 1376 156 1421 174 q 1275 138 1331 138 q 1113 160 1182 138 q 1010 208 1043 182 q 929 257 976 235 q 829 279 882 279 q 719 250 775 279 q 623 185 664 221 q 519 121 582 150 q 388 92 456 92 z "},"F":{"ha":1713,"x_min":28,"x_max":1685,"o":"m 486 78 q 306 123 382 78 q 231 261 231 168 q 268 358 231 306 q 351 449 306 410 q 433 539 396 489 q 468 631 469 589 q 422 701 467 664 q 312 774 376 738 q 183 852 247 810 q 73 956 118 894 q 28 1088 28 1017 q 63 1190 28 1143 q 150 1236 97 1236 q 272 1339 272 1236 q 313 1461 272 1401 q 415 1521 353 1521 q 613 1480 460 1521 q 818 1439 767 1439 q 890 1461 849 1439 q 972 1509 932 1483 q 1097 1557 1013 1535 q 1290 1579 1182 1579 q 1551 1499 1428 1579 q 1675 1317 1675 1418 q 1607 1128 1675 1204 q 1408 1053 1539 1053 q 1272 1083 1347 1053 q 1137 1151 1196 1114 q 1006 1219 1078 1189 q 876 1250 933 1250 q 672 1195 738 1250 q 606 1056 606 1140 q 624 874 606 919 q 717 811 649 810 q 847 840 776 813 q 974 901 917 868 q 1117 960 1031 933 q 1293 988 1204 988 q 1395 984 1351 988 q 1497 965 1439 981 q 1593 923 1556 950 q 1658 844 1631 896 q 1685 719 1685 792 q 1614 449 1685 556 q 1396 342 1543 342 q 1313 357 1347 342 q 1261 392 1278 372 q 1235 444 1244 411 q 1225 496 1226 476 q 1224 546 1224 515 q 1156 724 1224 654 q 997 794 1088 794 q 851 708 918 794 q 785 561 785 622 q 817 466 785 535 q 850 324 850 397 q 486 78 850 78 z "},"G":{"ha":1775,"x_min":28,"x_max":1747,"o":"m 797 47 q 454 72 600 47 q 229 134 308 97 q 102 224 150 171 q 41 323 54 278 q 28 421 28 368 q 92 572 28 524 q 235 619 157 619 q 302 605 276 619 q 340 570 328 590 q 365 529 353 550 q 403 494 378 508 q 471 479 429 479 q 526 483 506 479 q 569 499 546 486 q 603 542 593 511 q 614 622 614 572 q 559 733 614 688 q 426 808 504 779 q 269 869 347 838 q 135 958 190 901 q 81 1097 81 1015 q 108 1219 81 1160 q 192 1332 136 1279 q 351 1417 249 1385 q 585 1450 453 1450 q 780 1419 688 1450 q 934 1344 872 1389 q 1047 1256 996 1300 q 1138 1182 1097 1213 q 1207 1151 1178 1151 q 1235 1155 1222 1151 q 1258 1164 1249 1158 q 1276 1178 1268 1169 q 1288 1195 1283 1188 q 1297 1216 1293 1203 q 1302 1237 1300 1229 q 1305 1258 1304 1244 q 1306 1277 1306 1272 q 1306 1294 1306 1282 q 1306 1308 1306 1307 q 1363 1447 1306 1399 q 1518 1494 1419 1494 q 1681 1450 1614 1494 q 1747 1342 1747 1406 q 1729 1258 1747 1301 q 1682 1215 1711 1215 q 1594 1228 1660 1215 q 1510 1242 1528 1242 q 1472 1197 1492 1242 q 1426 1151 1453 1151 q 1344 1120 1390 1151 q 1297 1065 1297 1089 q 1327 1019 1297 1042 q 1383 997 1357 997 q 1441 1012 1399 997 q 1508 1026 1483 1026 q 1592 983 1554 1026 q 1631 840 1631 939 q 1562 706 1631 772 q 1403 601 1493 639 q 1242 564 1314 564 q 1022 622 1164 564 q 847 679 881 679 q 708 565 708 679 q 1054 422 708 422 q 1258 441 1163 422 q 1407 483 1354 460 q 1502 524 1460 506 q 1558 543 1544 543 q 1647 498 1606 542 q 1688 372 1688 454 q 1606 217 1688 283 q 1390 116 1525 151 q 1107 64 1256 81 q 797 47 958 47 m 474 292 q 534 219 474 260 q 688 150 594 179 q 865 121 781 121 q 1015 141 942 121 q 1141 181 1089 161 q 1217 201 1193 201 q 1318 194 1250 201 q 1413 188 1386 188 q 1483 220 1453 188 q 1514 288 1514 253 q 1454 351 1514 319 q 1340 382 1394 382 q 1176 322 1310 382 q 985 261 1042 261 q 888 278 935 261 q 811 315 842 294 q 738 351 781 335 q 650 368 694 368 q 474 292 474 368 m 531 1000 q 589 848 531 917 q 749 779 647 779 q 840 795 783 779 q 957 811 896 811 q 1042 790 1003 811 q 1104 742 1081 768 q 1160 694 1128 715 q 1224 672 1192 672 q 1328 701 1282 672 q 1375 804 1375 731 q 1349 894 1375 867 q 1260 921 1324 921 q 1138 913 1224 921 q 976 906 1053 906 q 889 958 929 906 q 825 1075 849 1011 q 771 1192 801 1139 q 713 1244 740 1244 q 590 1161 650 1244 q 531 1000 531 1078 z "},"H":{"ha":1656,"x_min":28,"x_max":1628,"o":"m 1296 47 q 1127 94 1181 47 q 1074 235 1074 140 q 1090 325 1074 283 q 1126 392 1106 367 q 1162 449 1146 417 q 1178 515 1178 482 q 1166 561 1178 546 q 1126 579 1154 576 q 1069 580 1097 582 q 988 573 1040 578 q 894 568 936 568 q 817 590 847 568 q 771 642 786 611 q 741 705 756 674 q 699 758 726 736 q 631 779 672 779 q 583 772 608 779 q 533 736 558 765 q 507 658 507 707 q 538 599 507 629 q 612 537 568 568 q 699 469 656 506 q 774 381 743 433 q 804 269 804 329 q 794 197 804 229 q 757 128 785 164 q 665 71 729 92 q 504 50 600 50 q 267 128 357 50 q 178 300 178 206 q 210 465 178 392 q 274 590 242 538 q 306 681 306 642 q 277 744 306 707 q 208 825 249 782 q 126 919 167 868 q 56 1039 85 969 q 28 1183 28 1108 q 144 1476 28 1379 q 476 1572 261 1572 q 761 1498 665 1572 q 857 1339 857 1424 q 813 1198 857 1264 q 699 1132 768 1132 q 629 1142 676 1132 q 545 1156 582 1151 q 469 1154 508 1160 q 408 1115 431 1149 q 386 1021 386 1082 q 403 972 386 993 q 455 938 421 950 q 520 919 489 926 q 601 908 551 911 q 675 905 650 906 q 743 904 700 904 q 757 904 753 904 q 848 886 817 904 q 887 842 879 868 q 901 791 894 817 q 933 747 908 765 q 1008 729 957 729 q 1124 772 1068 729 q 1181 874 1181 815 q 1132 1003 1181 906 q 1035 1209 1083 1100 q 986 1379 986 1318 q 1067 1526 986 1476 q 1251 1575 1149 1575 q 1325 1572 1293 1575 q 1396 1558 1357 1569 q 1460 1526 1435 1546 q 1502 1469 1485 1507 q 1519 1379 1519 1431 q 1485 1247 1519 1318 q 1410 1124 1451 1176 q 1335 1010 1369 1071 q 1301 908 1301 950 q 1350 830 1301 867 q 1456 769 1399 793 q 1563 702 1514 744 q 1611 607 1611 660 q 1574 478 1611 568 q 1536 363 1536 388 q 1559 322 1536 340 q 1605 282 1582 304 q 1628 228 1628 260 q 1535 106 1628 164 q 1296 47 1443 47 z "},"I":{"ha":1658,"x_min":28,"x_max":1631,"o":"m 554 53 q 247 156 356 53 q 139 401 139 258 q 249 663 139 543 q 524 782 360 782 q 649 755 604 782 q 705 688 694 728 q 720 599 715 647 q 726 511 725 551 q 753 444 728 471 q 832 417 779 417 q 963 472 894 417 q 1031 564 1031 526 q 1013 615 1031 588 q 994 658 994 642 q 1013 729 994 678 q 1031 806 1031 781 q 988 868 1031 836 q 892 924 944 900 q 797 986 840 949 q 754 1065 754 1024 q 775 1138 754 1100 q 796 1206 796 1176 q 758 1281 796 1250 q 668 1313 719 1313 q 568 1271 615 1313 q 521 1178 521 1229 q 567 1097 521 1144 q 614 1000 614 1049 q 553 904 614 949 q 413 838 492 860 q 268 817 335 817 q 96 895 164 817 q 28 1138 28 974 q 59 1267 28 1204 q 140 1375 90 1329 q 249 1456 189 1421 q 367 1508 308 1490 q 472 1525 425 1525 q 643 1476 550 1525 q 810 1426 736 1426 q 1092 1481 886 1426 q 1365 1536 1297 1536 q 1548 1467 1472 1536 q 1624 1288 1624 1399 q 1537 1054 1624 1168 q 1342 940 1450 940 q 1249 967 1283 940 q 1205 1032 1214 993 q 1188 1117 1196 1071 q 1175 1201 1181 1163 q 1142 1267 1169 1240 q 1065 1293 1114 1293 q 996 1254 1022 1293 q 969 1157 969 1215 q 1004 1083 969 1118 q 1081 1026 1039 1049 q 1157 967 1122 1003 q 1192 889 1192 931 q 1158 772 1192 822 q 1124 681 1124 721 q 1148 592 1124 635 q 1224 550 1172 550 q 1294 592 1274 550 q 1314 681 1314 635 q 1341 762 1314 722 q 1425 801 1368 801 q 1540 747 1492 801 q 1610 617 1589 692 q 1631 463 1631 542 q 1619 346 1631 401 q 1583 237 1608 290 q 1509 152 1558 183 q 1390 121 1460 121 q 1274 150 1325 121 q 1192 213 1222 179 q 1115 276 1163 247 q 1011 306 1068 306 q 926 280 965 306 q 856 217 888 254 q 787 142 824 179 q 690 78 750 104 q 554 53 631 53 z "},"J":{"ha":1694,"x_min":28,"x_max":1667,"o":"m 411 38 q 120 160 213 38 q 28 488 28 282 q 74 654 28 578 q 187 776 119 731 q 325 848 254 822 q 451 874 396 874 q 596 848 525 874 q 717 768 667 822 q 767 643 767 714 q 750 566 767 597 q 710 517 733 535 q 662 481 686 499 q 621 437 638 464 q 604 372 604 410 q 607 331 604 351 q 619 285 610 311 q 649 242 628 258 q 701 226 671 226 q 845 303 746 226 q 992 381 944 381 q 1054 397 1026 381 q 1099 438 1082 414 q 1129 501 1117 463 q 1147 572 1142 539 q 1156 651 1153 606 q 1158 724 1158 696 q 1156 788 1157 751 q 1156 833 1156 825 q 1134 1038 1156 947 q 1061 1190 1113 1129 q 933 1251 1010 1251 q 851 1221 897 1251 q 756 1147 806 1190 q 650 1059 706 1103 q 520 985 594 1015 q 369 954 446 954 q 143 1047 231 954 q 56 1271 56 1140 q 134 1469 56 1393 q 324 1546 213 1546 q 506 1478 383 1546 q 654 1410 629 1410 q 704 1431 679 1410 q 760 1472 729 1451 q 832 1493 792 1493 q 1036 1428 879 1493 q 1242 1364 1193 1364 q 1360 1420 1290 1364 q 1475 1476 1429 1476 q 1606 1390 1546 1476 q 1667 1197 1667 1303 q 1626 1022 1667 1089 q 1514 954 1585 954 q 1418 1060 1418 954 q 1395 1172 1418 1108 q 1335 1235 1372 1235 q 1250 1195 1286 1235 q 1214 1076 1214 1156 q 1251 916 1214 1007 q 1334 747 1289 825 q 1417 556 1379 669 q 1454 333 1454 443 q 1415 164 1454 242 q 1313 86 1376 86 q 1136 113 1219 86 q 987 167 1053 140 q 869 194 921 194 q 800 178 835 194 q 731 140 765 163 q 656 93 697 117 q 552 53 615 69 q 411 38 489 38 z "},"K":{"ha":1481,"x_min":28,"x_max":1453,"o":"m 351 38 q 28 403 28 38 q 57 511 28 456 q 121 608 86 567 q 185 712 156 649 q 214 843 214 775 q 197 940 214 899 q 156 1009 181 982 q 108 1065 132 1036 q 67 1138 83 1093 q 50 1243 50 1182 q 137 1469 50 1394 q 339 1544 224 1544 q 488 1483 429 1544 q 546 1371 546 1422 q 531 1325 546 1344 q 500 1296 517 1306 q 469 1262 483 1286 q 454 1201 454 1238 q 474 1155 454 1179 q 528 1131 494 1131 q 583 1156 550 1131 q 651 1181 615 1181 q 691 1166 672 1181 q 723 1135 710 1151 q 770 1103 736 1118 q 854 1089 804 1089 q 942 1115 906 1089 q 997 1182 979 1140 q 1021 1262 1014 1224 q 1028 1340 1028 1300 q 1064 1471 1028 1417 q 1176 1525 1100 1525 q 1266 1504 1219 1525 q 1355 1446 1313 1483 q 1425 1344 1397 1408 q 1453 1203 1453 1281 q 1335 972 1453 1051 q 1051 893 1217 893 q 951 915 992 893 q 876 960 911 938 q 790 982 840 982 q 701 941 728 982 q 675 843 675 900 q 713 771 675 799 q 801 743 751 743 q 906 713 857 743 q 954 628 954 683 q 989 533 954 567 q 1082 500 1024 500 q 1131 515 1113 500 q 1176 547 1150 531 q 1250 563 1203 563 q 1382 498 1332 563 q 1432 292 1432 433 q 1199 53 1432 53 q 994 90 1063 53 q 876 210 926 128 q 838 317 860 238 q 786 454 815 397 q 713 521 757 511 q 676 556 686 526 q 665 618 667 586 q 638 676 664 650 q 556 701 611 701 q 501 688 521 701 q 481 626 481 674 q 511 436 481 596 q 542 222 542 276 q 503 85 542 133 q 351 38 465 38 z "},"L":{"ha":1579,"x_min":28,"x_max":1551,"o":"m 265 28 q 106 78 161 28 q 51 214 51 129 q 74 345 51 283 q 126 445 97 407 q 177 535 154 483 q 200 638 200 586 q 173 746 200 688 q 114 852 146 804 q 55 983 82 900 q 28 1163 28 1067 q 100 1392 28 1279 q 284 1576 172 1506 q 507 1646 396 1646 q 762 1573 671 1646 q 853 1389 853 1500 q 808 1169 853 1281 q 701 971 764 1058 q 574 804 638 883 q 465 654 510 725 q 421 532 421 583 q 460 412 421 465 q 562 328 500 358 q 690 282 624 297 q 819 267 757 267 q 1028 320 936 267 q 1119 438 1119 374 q 1096 498 1119 464 q 1044 563 1072 532 q 992 650 1015 593 q 968 774 968 707 q 976 835 968 806 q 1002 895 983 864 q 1063 945 1021 926 q 1165 964 1106 964 q 1365 888 1274 964 q 1503 698 1456 813 q 1551 463 1551 583 q 1444 183 1551 292 q 1207 74 1338 74 q 1018 117 1129 74 q 807 160 907 160 q 683 139 744 160 q 578 94 622 118 q 451 49 533 69 q 265 28 368 28 z "},"M":{"ha":1615,"x_min":28,"x_max":1588,"o":"m 290 121 q 194 130 236 121 q 112 163 151 139 q 50 236 72 188 q 28 356 28 285 q 78 535 28 429 q 190 734 129 642 q 302 938 251 826 q 353 1128 353 1049 q 342 1212 353 1182 q 296 1242 331 1242 q 202 1226 269 1242 q 115 1211 135 1211 q 59 1247 81 1211 q 38 1360 38 1283 q 85 1486 38 1438 q 196 1535 132 1535 q 310 1433 261 1535 q 381 1318 354 1342 q 424 1300 401 1300 q 451 1307 439 1300 q 470 1328 463 1314 q 482 1353 478 1342 q 491 1384 486 1364 q 499 1411 496 1404 q 557 1486 513 1457 q 668 1515 601 1515 q 782 1481 740 1515 q 824 1378 824 1446 q 822 1322 824 1364 q 819 1248 819 1279 q 822 1175 818 1217 q 837 1106 826 1133 q 870 1060 847 1079 q 926 1040 893 1040 q 974 1059 958 1040 q 989 1107 989 1078 q 974 1208 989 1151 q 958 1317 958 1264 q 1011 1402 958 1358 q 1144 1449 1064 1446 q 1297 1401 1231 1451 q 1364 1286 1364 1351 q 1357 1224 1364 1272 q 1352 1132 1350 1175 q 1374 1050 1354 1089 q 1424 960 1379 1039 q 1499 818 1468 881 q 1558 658 1529 756 q 1588 475 1588 560 q 1556 319 1588 388 q 1473 210 1525 250 q 1357 149 1421 169 q 1224 129 1293 129 q 1060 192 1115 129 q 1004 356 1004 254 q 1039 467 1004 410 q 1123 572 1074 524 q 1222 665 1172 619 q 1307 758 1272 710 q 1342 849 1342 807 q 1324 937 1342 899 q 1267 975 1306 975 q 1163 864 1163 975 q 1140 781 1163 801 q 1064 760 1117 760 q 976 697 976 760 q 988 638 976 672 q 999 565 999 604 q 940 467 999 510 q 792 425 882 425 q 688 467 724 425 q 651 571 651 508 q 687 675 651 621 q 758 783 722 729 q 793 886 793 838 q 632 1047 793 1047 q 569 1042 601 1047 q 501 1019 538 1036 q 438 974 465 1001 q 392 900 410 947 q 374 793 374 853 q 406 638 374 722 q 476 491 438 553 q 546 366 514 429 q 578 269 578 303 q 290 121 578 121 z "},"N":{"ha":1625,"x_min":28,"x_max":1597,"o":"m 250 97 q 185 101 213 97 q 126 120 157 106 q 74 160 94 135 q 41 229 54 185 q 28 336 28 274 q 56 537 28 428 q 119 726 85 646 q 181 885 153 807 q 210 1003 210 964 q 154 1187 210 1064 q 99 1365 99 1310 q 232 1564 99 1564 q 312 1535 275 1564 q 374 1466 349 1507 q 423 1384 399 1425 q 477 1315 447 1343 q 542 1286 507 1286 q 672 1323 576 1286 q 846 1360 768 1360 q 1083 1242 1006 1360 q 1161 926 1161 1124 q 1143 754 1161 883 q 1125 593 1125 625 q 1126 550 1125 567 q 1134 510 1128 533 q 1151 472 1140 486 q 1185 448 1163 458 q 1239 438 1207 438 q 1386 523 1326 438 q 1446 761 1446 608 q 1417 880 1446 819 q 1345 992 1388 940 q 1260 1098 1303 1044 q 1189 1218 1218 1151 q 1160 1353 1160 1285 q 1326 1513 1160 1513 q 1519 1417 1442 1513 q 1597 1192 1597 1321 q 1563 982 1597 1094 q 1529 847 1529 869 q 1557 714 1529 828 q 1585 492 1585 600 q 1537 281 1585 356 q 1410 207 1489 207 q 1303 232 1354 207 q 1224 257 1251 257 q 1183 244 1203 257 q 1147 217 1163 232 q 1100 190 1132 203 q 1028 178 1068 178 q 792 265 894 178 q 690 504 690 351 q 729 699 690 603 q 768 871 768 796 q 717 1039 768 981 q 600 1097 667 1097 q 476 1017 525 1097 q 428 843 428 936 q 475 634 428 794 q 522 378 522 474 q 443 170 522 243 q 250 97 364 97 z "},"O":{"ha":1625,"x_min":28,"x_max":1597,"o":"m 1289 69 q 1178 89 1224 69 q 1108 136 1132 108 q 1061 192 1083 164 q 1004 239 1039 219 q 919 258 969 258 q 753 229 850 258 q 545 170 656 200 q 335 140 435 140 q 188 181 249 140 q 92 300 126 222 q 43 476 58 378 q 28 701 28 574 q 80 1019 28 865 q 230 1274 132 1172 q 447 1376 328 1376 q 572 1360 513 1376 q 667 1324 632 1344 q 741 1288 703 1304 q 807 1272 779 1272 q 920 1325 842 1272 q 1089 1431 999 1378 q 1243 1483 1179 1483 q 1444 1394 1350 1483 q 1538 1217 1538 1304 q 1503 1119 1538 1171 q 1435 1010 1469 1067 q 1400 900 1400 954 q 1420 831 1400 865 q 1469 766 1440 797 q 1528 701 1499 735 q 1577 616 1557 667 q 1597 507 1597 565 q 1510 203 1597 338 q 1289 69 1424 69 m 479 928 q 540 847 479 868 q 728 826 601 826 q 913 571 913 826 q 973 434 913 481 q 1132 388 1033 388 q 1270 442 1231 388 q 1310 601 1310 497 q 1288 698 1310 656 q 1235 767 1267 740 q 1173 816 1204 793 q 1120 866 1142 839 q 1099 926 1099 893 q 1122 987 1099 961 q 1174 1026 1146 1013 q 1226 1067 1203 1039 q 1250 1135 1250 1094 q 1231 1219 1250 1192 q 1164 1247 1211 1247 q 1074 1226 1115 1247 q 1033 1169 1033 1206 q 1012 1090 1033 1115 q 952 1065 990 1064 q 874 1074 914 1065 q 783 1094 835 1082 q 700 1106 732 1106 q 535 1053 590 1106 q 479 928 479 1000 z "},"P":{"ha":1643,"x_min":28,"x_max":1615,"o":"m 400 26 q 235 51 306 26 q 128 117 165 75 q 73 207 90 160 q 56 310 56 254 q 91 555 56 421 q 162 794 126 689 q 197 938 197 899 q 171 1009 197 971 q 113 1079 144 1047 q 54 1165 81 1111 q 28 1281 28 1218 q 89 1460 28 1399 q 271 1522 150 1522 q 474 1406 474 1522 q 467 1341 474 1374 q 456 1290 461 1308 q 449 1257 450 1272 q 459 1235 447 1242 q 497 1229 471 1229 q 578 1256 535 1229 q 674 1321 622 1282 q 791 1399 726 1360 q 960 1470 856 1439 q 1189 1508 1064 1501 q 1615 1129 1615 1531 q 1614 1017 1615 1064 q 1604 898 1613 969 q 1581 774 1596 826 q 1536 665 1565 722 q 1467 571 1507 607 q 1365 510 1426 535 q 1225 486 1303 486 q 1031 544 1100 486 q 963 721 963 603 q 897 972 963 889 q 710 1056 831 1056 q 486 968 597 1056 q 375 803 375 881 q 413 727 375 760 q 506 674 450 694 q 628 625 563 653 q 749 568 693 597 q 843 485 806 539 q 881 360 881 431 q 757 115 881 204 q 400 26 633 26 m 850 1194 q 964 1125 850 1125 q 992 1126 968 1125 q 1038 1126 1017 1126 q 1091 1126 1060 1126 q 1147 1119 1122 1125 q 1195 1106 1172 1114 q 1231 1082 1218 1097 q 1243 1046 1243 1067 q 1226 984 1243 1011 q 1190 943 1210 957 q 1154 909 1171 929 q 1138 867 1138 889 q 1169 819 1138 838 q 1256 800 1200 800 q 1348 822 1308 800 q 1407 878 1388 843 q 1435 951 1426 914 q 1444 1026 1444 988 q 1425 1099 1444 1072 q 1387 1143 1406 1125 q 1368 1185 1368 1161 q 1385 1228 1368 1204 q 1403 1274 1403 1251 q 1350 1342 1403 1310 q 1217 1375 1297 1375 q 1110 1363 1171 1375 q 990 1330 1050 1351 q 890 1272 931 1308 q 850 1194 850 1236 z "},"Q":{"ha":1651,"x_min":28,"x_max":1624,"o":"m 1354 42 q 1236 73 1288 42 q 1152 149 1185 104 q 1090 239 1119 194 q 1020 315 1060 283 q 931 346 981 346 q 842 325 881 346 q 774 275 803 304 q 713 217 744 246 q 633 167 682 188 q 519 146 583 146 q 291 249 407 146 q 101 507 175 353 q 28 803 28 661 q 50 995 28 893 q 122 1203 72 1097 q 242 1394 171 1310 q 421 1533 313 1479 q 657 1588 529 1588 q 823 1559 747 1588 q 943 1497 899 1531 q 1052 1435 988 1464 q 1186 1407 1117 1407 q 1320 1399 1263 1407 q 1438 1366 1378 1392 q 1537 1297 1499 1340 q 1599 1176 1575 1253 q 1624 996 1624 1100 q 1584 844 1624 911 q 1485 740 1544 778 q 1358 669 1426 701 q 1230 619 1289 638 q 1131 576 1171 600 q 1092 525 1092 551 q 1137 474 1092 496 q 1274 451 1182 451 q 1529 390 1451 451 q 1607 233 1607 328 q 1528 98 1607 154 q 1354 42 1450 42 m 361 974 q 381 915 361 939 q 422 881 400 892 q 464 844 444 871 q 483 776 483 817 q 548 590 483 661 q 728 518 613 518 q 872 567 819 518 q 925 668 925 615 q 890 713 925 697 q 811 734 854 728 q 733 765 768 740 q 697 833 697 789 q 716 897 697 871 q 769 924 735 924 q 881 903 815 924 q 967 851 947 882 q 982 811 976 836 q 993 767 988 786 q 1010 729 999 749 q 1047 699 1021 710 q 1114 689 1072 689 q 1157 692 1140 689 q 1198 704 1174 694 q 1235 741 1222 714 q 1249 810 1249 768 q 1217 924 1249 879 q 1139 985 1186 969 q 1036 1010 1092 1001 q 933 1022 981 1019 q 855 1038 886 1024 q 824 1079 824 1051 q 837 1142 824 1106 q 856 1201 850 1179 q 851 1247 861 1224 q 792 1280 842 1269 q 647 1290 742 1290 q 512 1260 569 1290 q 422 1181 454 1231 q 376 1080 390 1132 q 361 974 361 1028 z "},"R":{"ha":1532,"x_min":28,"x_max":1504,"o":"m 221 51 q 126 71 164 51 q 69 126 88 90 q 45 200 51 163 q 39 289 39 238 q 101 573 39 336 q 164 929 164 810 q 142 1066 164 1001 q 96 1169 121 1131 q 49 1260 71 1208 q 28 1364 28 1313 q 45 1469 28 1419 q 113 1556 63 1518 q 239 1594 163 1594 q 340 1549 293 1594 q 416 1451 388 1504 q 485 1352 444 1397 q 571 1307 526 1307 q 637 1344 607 1307 q 697 1433 667 1381 q 769 1537 728 1485 q 886 1626 810 1589 q 1067 1663 963 1663 q 1183 1648 1117 1663 q 1315 1608 1249 1633 q 1428 1536 1382 1582 q 1474 1436 1474 1490 q 1454 1360 1474 1393 q 1415 1306 1435 1326 q 1396 1275 1396 1286 q 1416 1215 1396 1264 q 1436 1126 1436 1165 q 1352 938 1436 1028 q 1156 847 1268 847 q 1069 863 1117 847 q 1003 878 1022 878 q 942 865 983 878 q 867 851 901 851 q 803 867 831 851 q 763 903 776 883 q 728 938 749 922 q 686 954 708 954 q 623 924 647 954 q 599 849 599 894 q 656 702 599 788 q 797 554 714 617 q 946 492 881 492 q 1040 515 1010 492 q 1071 564 1071 538 q 1047 612 1071 572 q 1024 693 1024 651 q 1052 744 1024 724 q 1124 773 1081 764 q 1199 785 1168 782 q 1257 788 1231 788 q 1446 734 1388 788 q 1504 592 1504 681 q 1492 492 1504 549 q 1453 369 1481 435 q 1385 249 1425 304 q 1283 158 1346 194 q 1147 122 1221 122 q 991 156 1061 122 q 879 239 921 189 q 799 347 838 289 q 735 454 761 404 q 675 538 710 504 q 603 571 640 571 q 474 524 517 571 q 432 410 432 478 q 445 282 432 333 q 458 197 458 231 q 395 93 458 135 q 221 51 332 51 m 854 1254 q 940 1110 854 1110 q 1018 1146 981 1110 q 1069 1182 1056 1182 q 1102 1162 1079 1182 q 1142 1142 1125 1142 q 1181 1156 1161 1142 q 1201 1197 1201 1169 q 1122 1319 1201 1246 q 963 1392 1042 1392 q 885 1353 917 1392 q 854 1254 854 1315 z "},"S":{"ha":1563,"x_min":28,"x_max":1535,"o":"m 322 88 q 100 166 172 88 q 28 360 28 244 q 133 538 28 464 q 390 613 239 613 q 610 576 478 613 q 859 504 743 540 q 1021 468 975 468 q 1149 511 1101 468 q 1196 600 1196 554 q 1172 695 1196 653 q 1085 738 1147 738 q 816 700 1000 738 q 482 663 632 663 q 160 786 283 663 q 36 1071 36 910 q 117 1360 36 1231 q 317 1490 197 1490 q 432 1476 381 1490 q 515 1445 483 1463 q 615 1414 547 1428 q 775 1400 682 1400 q 950 1424 868 1400 q 1079 1477 1032 1449 q 1183 1530 1126 1506 q 1288 1554 1239 1554 q 1467 1471 1400 1554 q 1535 1242 1535 1388 q 1456 1024 1535 1117 q 1236 931 1376 931 q 1095 967 1146 931 q 1044 1051 1044 1003 q 1092 1153 1044 1104 q 1140 1239 1140 1201 q 1113 1281 1140 1260 q 1024 1320 1086 1303 q 883 1338 963 1338 q 667 1255 753 1338 q 582 1039 582 1172 q 589 990 582 1013 q 612 951 596 968 q 644 922 628 935 q 688 899 660 908 q 738 883 717 890 q 797 872 760 876 q 858 866 835 868 q 923 863 881 864 q 985 861 965 861 q 1049 861 1006 861 q 1196 841 1129 861 q 1319 777 1263 821 q 1406 654 1375 733 q 1438 467 1438 575 q 1420 344 1438 401 q 1356 244 1403 288 q 1240 201 1310 201 q 1046 236 1189 201 q 800 271 903 271 q 701 252 749 271 q 614 206 653 233 q 535 152 575 179 q 440 106 494 125 q 322 88 385 88 z "},"T":{"ha":1647,"x_min":28,"x_max":1619,"o":"m 933 65 q 738 82 824 65 q 601 125 651 99 q 517 188 550 151 q 472 257 483 224 q 460 325 460 290 q 486 435 460 372 q 544 556 513 499 q 600 673 575 614 q 622 788 625 732 q 576 886 618 844 q 515 919 547 915 q 447 908 482 922 q 376 876 411 894 q 295 841 340 857 q 208 825 250 825 q 75 911 122 825 q 28 1097 28 997 q 67 1256 28 1192 q 186 1319 107 1319 q 316 1277 242 1319 q 449 1235 390 1235 q 506 1253 489 1235 q 524 1294 524 1271 q 499 1350 524 1315 q 475 1415 475 1385 q 521 1494 475 1461 q 622 1541 567 1528 q 725 1554 676 1554 q 798 1531 772 1554 q 824 1464 824 1507 q 801 1382 824 1417 q 754 1324 778 1347 q 731 1278 731 1300 q 803 1201 731 1236 q 967 1167 876 1167 q 1099 1196 1031 1167 q 1217 1260 1168 1225 q 1326 1324 1267 1294 q 1433 1353 1385 1353 q 1569 1289 1519 1353 q 1619 1118 1619 1225 q 1547 949 1619 1017 q 1388 882 1474 882 q 1190 924 1331 882 q 1013 965 1050 965 q 951 959 976 965 q 898 933 925 953 q 856 870 871 914 q 842 761 842 826 q 854 594 842 685 q 892 411 867 503 q 963 258 917 319 q 1067 197 1008 197 q 1133 237 1104 197 q 1173 322 1161 276 q 1185 404 1185 367 q 1151 485 1185 450 q 1083 551 1117 521 q 1049 615 1049 582 q 1122 749 1049 682 q 1300 817 1196 817 q 1489 735 1419 817 q 1558 475 1558 653 q 1392 176 1558 286 q 933 65 1226 65 z "},"U":{"ha":1668,"x_min":28,"x_max":1640,"o":"m 718 39 q 538 74 611 39 q 428 163 464 110 q 371 292 393 217 q 343 434 349 367 q 328 578 338 501 q 303 700 318 656 q 247 812 283 756 q 174 911 210 868 q 105 1001 139 954 q 49 1108 71 1049 q 28 1235 28 1168 q 102 1513 28 1415 q 314 1611 176 1611 q 478 1550 401 1611 q 595 1403 554 1489 q 636 1235 636 1317 q 618 1119 636 1179 q 593 1021 600 1060 q 606 871 586 982 q 712 613 640 719 q 861 506 783 506 q 972 567 896 506 q 1082 640 1049 629 q 1315 747 1261 696 q 1368 921 1368 797 q 1319 1128 1368 981 q 1269 1350 1269 1276 q 1316 1545 1269 1465 q 1449 1625 1363 1625 q 1587 1526 1533 1625 q 1640 1315 1640 1428 q 1604 1092 1640 1254 q 1568 829 1568 931 q 1603 556 1568 725 q 1639 338 1639 386 q 1605 173 1639 239 q 1493 107 1571 107 q 1332 147 1413 107 q 1189 186 1251 186 q 1046 149 1124 186 q 883 76 968 113 q 718 39 799 39 z "},"V":{"ha":1622,"x_min":28,"x_max":1594,"o":"m 958 108 q 894 140 924 108 q 844 218 865 172 q 773 341 822 264 q 661 486 724 418 q 553 583 608 543 q 456 643 497 624 q 377 680 414 663 q 315 722 340 697 q 275 782 289 746 q 187 947 251 846 q 75 1136 122 1047 q 28 1292 28 1225 q 42 1387 28 1343 q 97 1466 56 1431 q 204 1501 139 1501 q 309 1448 271 1501 q 356 1327 347 1394 q 380 1184 365 1260 q 417 1079 394 1108 q 488 1025 440 1049 q 582 987 536 1001 q 679 939 628 972 q 761 857 731 906 q 826 672 799 799 q 873 456 853 546 q 924 367 893 367 q 1047 546 972 367 q 1122 800 1122 725 q 1087 955 1122 831 q 1051 1185 1051 1079 q 1160 1410 1051 1322 q 1431 1497 1269 1497 q 1516 1467 1481 1497 q 1567 1392 1551 1438 q 1588 1308 1582 1346 q 1594 1238 1594 1271 q 1561 1044 1594 1131 q 1484 909 1528 958 q 1377 784 1440 860 q 1275 639 1314 708 q 1165 399 1225 550 q 1060 178 1104 247 q 958 108 1017 108 z "},"W":{"ha":1649,"x_min":28,"x_max":1621,"o":"m 717 69 q 594 123 643 69 q 524 246 546 176 q 469 409 503 315 q 396 556 435 503 q 310 649 364 600 q 211 736 257 697 q 122 821 165 775 q 53 926 78 867 q 28 1057 28 986 q 110 1395 28 1258 q 344 1532 192 1532 q 554 1467 471 1532 q 638 1313 638 1401 q 598 1203 638 1265 q 519 1076 558 1142 q 479 957 479 1011 q 540 791 479 863 q 674 719 601 719 q 788 831 788 719 q 731 942 788 879 q 675 1051 675 1004 q 695 1155 675 1103 q 762 1247 715 1207 q 869 1286 808 1286 q 993 1233 944 1286 q 1042 1111 1042 1181 q 987 1008 1042 1067 q 932 908 932 950 q 995 773 932 840 q 1139 706 1058 706 q 1235 737 1196 706 q 1275 824 1275 768 q 1251 890 1275 847 q 1199 975 1228 932 q 1146 1088 1169 1018 q 1122 1232 1122 1158 q 1213 1462 1122 1379 q 1406 1544 1304 1544 q 1560 1498 1499 1544 q 1621 1361 1621 1451 q 1545 1095 1621 1297 q 1469 833 1469 893 q 1522 587 1469 782 q 1574 289 1574 392 q 1521 172 1574 224 q 1374 121 1468 121 q 1260 163 1310 121 q 1181 267 1211 206 q 1124 389 1150 328 q 1063 492 1097 450 q 986 535 1029 535 q 918 487 943 535 q 881 371 893 439 q 853 234 868 303 q 806 117 839 165 q 717 69 772 69 z "},"X":{"ha":1603,"x_min":28,"x_max":1575,"o":"m 315 44 q 171 102 239 44 q 103 254 103 160 q 138 394 103 332 q 231 494 174 456 q 356 565 288 533 q 494 620 425 596 q 621 669 564 644 q 713 728 678 694 q 749 804 749 761 q 674 877 749 850 q 494 922 600 904 q 283 965 389 939 q 102 1054 176 992 q 28 1214 28 1117 q 108 1436 28 1328 q 293 1544 189 1544 q 394 1504 349 1544 q 440 1419 440 1464 q 426 1359 440 1403 q 412 1273 411 1315 q 444 1192 413 1231 q 532 1140 475 1154 q 652 1115 589 1126 q 750 1076 715 1104 q 808 1006 783 1050 q 858 937 833 961 q 929 913 882 913 q 1059 975 1004 913 q 1114 1099 1114 1038 q 1072 1219 1114 1135 q 1029 1342 1029 1303 q 1036 1403 1029 1376 q 1063 1461 1043 1431 q 1130 1508 1083 1492 q 1246 1525 1176 1525 q 1465 1467 1389 1525 q 1540 1314 1540 1408 q 1476 1096 1540 1215 q 1317 929 1413 976 q 1168 883 1269 906 q 1008 831 1067 860 q 950 750 950 803 q 972 676 950 706 q 1035 646 994 646 q 1193 663 1058 646 q 1376 681 1328 681 q 1516 616 1457 681 q 1575 408 1575 551 q 1547 290 1575 336 q 1484 230 1518 244 q 1403 200 1450 215 q 1336 172 1356 185 q 1283 125 1311 156 q 1229 80 1254 94 q 1165 65 1204 65 q 1070 121 1111 65 q 1004 255 1029 176 q 956 413 979 333 q 897 547 932 492 q 813 603 861 603 q 711 545 750 603 q 648 406 672 488 q 592 242 624 324 q 492 102 561 160 q 315 44 422 44 z "},"Y":{"ha":1643,"x_min":28,"x_max":1615,"o":"m 886 61 q 777 108 814 61 q 740 218 740 154 q 781 331 740 254 q 821 457 821 408 q 792 531 821 500 q 704 563 763 563 q 613 536 663 563 q 524 478 564 510 q 433 421 485 447 q 336 394 382 394 q 230 423 282 394 q 131 508 178 451 q 56 666 85 565 q 28 897 28 767 q 98 1288 28 1151 q 261 1425 168 1425 q 340 1393 294 1425 q 422 1361 386 1361 q 515 1385 450 1361 q 617 1410 579 1410 q 751 1283 751 1410 q 685 1082 751 1183 q 536 935 618 981 q 433 892 504 917 q 324 843 361 868 q 288 776 288 818 q 403 672 288 713 q 625 631 518 631 q 753 655 688 631 q 860 679 819 679 q 926 649 890 679 q 990 619 961 619 q 1076 658 1031 619 q 1122 756 1122 696 q 1091 940 1122 832 q 1060 1133 1060 1047 q 1166 1354 1060 1258 q 1403 1450 1272 1450 q 1492 1440 1457 1450 q 1557 1397 1526 1429 q 1601 1298 1588 1364 q 1615 1128 1615 1232 q 1586 911 1615 1007 q 1509 757 1557 815 q 1403 656 1461 699 q 1282 588 1344 613 q 1166 543 1219 563 q 1070 502 1113 524 q 1013 454 1028 481 q 1000 397 996 429 q 1016 343 1004 365 q 1040 290 1028 321 q 1053 235 1053 258 q 1007 117 1053 172 q 886 61 961 61 z "},"Z":{"ha":1529,"x_min":28,"x_max":1501,"o":"m 800 57 q 657 74 719 57 q 550 110 594 92 q 475 131 506 129 q 350 110 435 132 q 211 88 265 88 q 76 142 125 88 q 28 279 28 197 q 86 434 28 358 q 235 570 144 510 q 436 688 326 631 q 649 794 546 744 q 833 892 753 844 q 951 990 914 940 q 961 1088 988 1040 q 913 1113 949 1111 q 839 1105 878 1115 q 748 1083 800 1094 q 663 1071 696 1071 q 529 1117 610 1071 q 401 1164 449 1164 q 358 1145 369 1164 q 354 1095 347 1126 q 372 1033 361 1064 q 394 969 383 1001 q 406 921 406 936 q 360 840 406 875 q 254 806 315 806 q 154 843 196 806 q 94 938 113 881 q 67 1044 75 996 q 58 1136 58 1093 q 93 1306 58 1231 q 183 1424 128 1381 q 301 1489 239 1467 q 424 1511 363 1511 q 538 1482 475 1511 q 651 1419 601 1453 q 763 1356 701 1385 q 871 1326 824 1326 q 1017 1366 929 1326 q 1199 1444 1106 1406 q 1368 1483 1293 1483 q 1465 1419 1429 1483 q 1501 1229 1501 1356 q 1461 1052 1501 1132 q 1357 918 1421 972 q 1215 819 1293 864 q 1060 740 1138 775 q 918 671 982 704 q 814 597 854 638 q 774 511 774 557 q 803 408 774 457 q 874 333 833 358 q 958 297 915 308 q 1026 307 1000 286 q 1051 347 1050 324 q 1038 392 1051 369 q 1011 455 1025 415 q 997 532 997 494 q 1081 651 997 604 q 1254 699 1164 699 q 1398 658 1346 699 q 1450 510 1450 617 q 1427 354 1450 424 q 1367 238 1404 285 q 1275 158 1331 192 q 1165 104 1219 124 q 1042 74 1111 85 q 918 60 972 63 q 800 57 864 57 z "},"a":{"ha":1072,"x_min":28,"x_max":1044,"o":"m 825 67 q 644 110 717 67 q 572 242 572 153 q 598 325 572 292 q 660 377 624 358 q 735 416 697 396 q 798 474 772 436 q 824 568 824 511 q 808 612 824 592 q 761 649 793 632 q 710 673 729 665 q 656 693 692 681 q 598 709 621 706 q 555 705 575 713 q 540 659 535 697 q 581 556 546 621 q 570 493 604 511 q 480 474 536 475 q 374 452 424 474 q 325 379 325 431 q 358 287 325 344 q 390 201 390 229 q 338 122 390 153 q 218 92 286 92 q 76 167 124 92 q 28 351 28 242 q 56 514 28 435 q 116 644 83 593 q 176 756 149 694 q 204 868 204 817 q 163 1013 204 926 q 122 1175 122 1099 q 245 1442 122 1340 q 551 1543 368 1543 q 780 1490 668 1543 q 967 1338 892 1438 q 1043 1121 1043 1239 q 1022 1019 1043 1064 q 974 948 1000 974 q 927 877 949 922 q 906 775 906 832 q 920 648 906 701 q 955 560 935 594 q 995 490 975 525 q 1030 399 1015 456 q 1044 265 1044 342 q 1032 155 1044 196 q 987 94 1019 114 q 921 71 954 75 q 825 67 888 67 m 361 850 q 447 839 418 813 q 479 912 475 865 q 499 1003 483 958 q 547 1047 515 1047 q 651 1025 588 1047 q 765 988 715 1003 q 835 983 815 972 q 863 1083 871 1003 q 807 1219 856 1163 q 528 1335 708 1335 q 400 1292 456 1335 q 319 1187 344 1250 q 288 1056 294 1124 q 301 931 281 989 q 361 850 321 874 z "},"b":{"ha":1065,"x_min":28,"x_max":1038,"o":"m 133 65 q 55 119 72 65 q 56 260 38 172 q 101 441 74 349 q 153 634 128 533 q 179 792 179 735 q 156 951 179 875 q 103 1074 132 1026 q 51 1183 75 1121 q 28 1303 28 1244 q 123 1490 29 1429 q 358 1550 217 1550 q 550 1595 435 1550 q 739 1642 665 1640 q 953 1572 869 1644 q 1038 1392 1036 1499 q 980 1199 1038 1303 q 846 1028 922 1096 q 713 961 769 961 q 632 996 685 961 q 524 1022 579 1031 q 427 968 461 1013 q 393 853 393 924 q 419 744 393 789 q 488 699 446 699 q 624 745 549 700 q 744 799 699 790 q 894 764 829 813 q 990 638 960 715 q 1021 474 1021 560 q 917 213 1021 310 q 663 115 814 117 q 525 142 588 115 q 417 192 463 168 q 336 214 372 217 q 276 188 301 211 q 238 137 251 164 q 199 88 225 110 q 133 65 172 65 m 175 1331 q 181 1217 158 1275 q 245 1124 203 1158 q 328 1094 288 1090 q 387 1127 357 1099 q 438 1190 417 1156 q 492 1258 460 1224 q 557 1306 525 1293 q 630 1319 585 1317 q 716 1320 675 1321 q 795 1324 757 1319 q 856 1347 833 1328 q 879 1403 879 1367 q 845 1476 879 1450 q 743 1514 811 1501 q 390 1479 579 1540 q 175 1331 201 1418 m 403 506 q 468 398 403 456 q 622 310 533 340 q 769 300 710 279 q 855 375 821 318 q 889 492 889 432 q 843 599 889 563 q 758 635 797 635 q 665 562 721 633 q 582 483 610 490 q 514 516 553 475 q 449 557 475 557 q 415 542 428 557 q 403 506 403 528 z "},"c":{"ha":1019,"x_min":28,"x_max":992,"o":"m 508 32 q 334 53 411 32 q 208 104 257 74 q 123 183 158 135 q 69 274 88 232 q 42 374 51 317 q 30 467 32 432 q 28 550 28 503 q 78 760 28 636 q 128 940 128 883 q 113 1006 128 976 q 80 1055 97 1035 q 47 1124 63 1075 q 32 1240 32 1172 q 100 1412 32 1336 q 265 1524 168 1488 q 464 1561 363 1561 q 690 1523 585 1561 q 862 1408 794 1485 q 929 1232 929 1332 q 883 1057 929 1140 q 764 974 838 974 q 712 1001 733 974 q 681 1067 690 1028 q 668 1138 672 1107 q 664 1190 664 1168 q 635 1299 664 1264 q 539 1333 606 1333 q 424 1267 463 1333 q 385 1100 385 1200 q 407 961 385 1044 q 429 801 429 878 q 408 708 429 750 q 356 636 386 665 q 294 580 325 607 q 241 520 263 553 q 219 451 219 488 q 265 317 219 375 q 396 260 311 260 q 524 294 465 260 q 582 368 582 328 q 558 424 582 389 q 508 505 533 460 q 483 594 483 550 q 538 710 483 669 q 683 751 592 751 q 783 740 735 751 q 881 699 832 728 q 961 613 931 671 q 992 472 992 554 q 965 305 992 382 q 884 165 939 228 q 733 67 829 103 q 508 32 638 32 z "},"d":{"ha":1150,"x_min":28,"x_max":1122,"o":"m 225 44 q 102 101 143 44 q 61 251 61 158 q 86 362 61 314 q 146 443 111 410 q 216 513 181 476 q 276 608 251 549 q 301 746 301 667 q 273 899 301 825 q 204 1032 244 974 q 124 1147 164 1090 q 56 1271 85 1204 q 28 1404 28 1338 q 69 1564 28 1496 q 174 1632 111 1632 q 255 1603 219 1632 q 322 1544 290 1574 q 389 1515 354 1515 q 531 1556 425 1515 q 683 1597 636 1597 q 890 1517 801 1597 q 1028 1304 979 1438 q 1099 1022 1076 1171 q 1122 708 1122 872 q 1043 219 1122 385 q 778 53 964 53 q 622 69 689 53 q 523 107 554 86 q 460 144 492 128 q 404 161 429 161 q 357 143 378 161 q 323 103 336 125 q 284 63 310 81 q 225 44 258 44 m 419 1357 q 475 1191 419 1310 q 531 1026 531 1072 q 522 944 531 992 q 513 853 513 897 q 525 753 513 794 q 555 692 538 713 q 600 659 572 671 q 647 645 628 647 q 693 643 665 643 q 777 598 731 643 q 847 553 824 553 q 911 604 885 553 q 938 722 938 656 q 931 795 938 761 q 908 865 925 829 q 857 922 892 901 q 772 943 822 943 q 696 972 715 943 q 676 1064 676 1000 q 716 1181 676 1117 q 756 1278 756 1244 q 728 1340 756 1314 q 656 1378 700 1367 q 574 1395 613 1390 q 496 1400 535 1400 q 438 1392 457 1400 q 419 1357 419 1383 z "},"e":{"ha":1044,"x_min":28,"x_max":1017,"o":"m 293 99 q 127 145 190 99 q 64 281 64 192 q 90 478 64 336 q 117 707 117 619 q 72 967 117 815 q 28 1201 28 1118 q 52 1337 28 1272 q 126 1460 76 1401 q 269 1553 176 1518 q 486 1589 363 1589 q 857 1469 729 1589 q 985 1114 985 1350 q 938 894 985 1001 q 822 717 890 788 q 678 603 753 646 q 547 560 604 560 q 481 572 507 560 q 442 601 454 583 q 417 635 429 618 q 383 665 406 653 q 326 676 361 676 q 227 641 264 676 q 190 549 190 606 q 260 394 190 453 q 432 336 331 336 q 525 358 483 336 q 597 413 567 381 q 657 476 628 444 q 727 531 686 508 q 818 553 768 553 q 960 498 904 553 q 1017 344 1017 443 q 980 188 1017 244 q 885 131 943 131 q 794 165 849 131 q 694 200 740 200 q 510 149 635 200 q 293 99 385 99 m 292 1268 q 308 1183 292 1224 q 356 1142 324 1142 q 399 1165 381 1142 q 437 1213 418 1189 q 482 1236 456 1236 q 560 1194 517 1236 q 603 1096 603 1153 q 532 955 603 1051 q 461 826 461 858 q 500 744 461 778 q 583 711 539 711 q 680 746 642 711 q 731 821 718 781 q 744 900 744 861 q 723 1024 744 929 q 701 1174 701 1119 q 738 1267 701 1226 q 775 1343 775 1307 q 538 1439 775 1439 q 352 1398 413 1439 q 292 1268 292 1357 z "},"f":{"ha":982,"x_min":28,"x_max":954,"o":"m 297 46 q 174 63 225 46 q 97 104 124 79 q 55 174 69 129 q 37 256 40 218 q 33 356 33 294 q 65 497 33 432 q 135 598 97 561 q 204 683 172 635 q 236 778 236 731 q 215 849 236 817 q 163 907 193 881 q 101 965 132 933 q 49 1052 71 997 q 28 1179 28 1107 q 110 1455 28 1358 q 290 1551 192 1551 q 465 1522 353 1551 q 600 1493 576 1493 q 715 1532 631 1493 q 828 1571 800 1571 q 916 1522 879 1571 q 953 1358 953 1472 q 900 1201 953 1244 q 760 1158 847 1158 q 687 1171 717 1158 q 639 1201 657 1183 q 602 1238 621 1219 q 553 1268 583 1256 q 479 1281 522 1281 q 294 1252 354 1281 q 235 1133 235 1224 q 263 1023 235 1069 q 343 976 290 976 q 475 1025 375 976 q 642 1074 575 1074 q 847 961 739 1074 q 954 728 954 849 q 886 495 954 603 q 744 388 818 388 q 626 433 676 388 q 575 526 575 479 q 603 646 575 554 q 631 769 631 738 q 560 861 631 813 q 451 910 490 910 q 378 880 413 910 q 344 799 344 850 q 369 756 344 774 q 424 728 394 738 q 478 701 453 719 q 503 658 503 683 q 491 547 503 621 q 479 431 479 472 q 503 376 479 403 q 556 329 528 349 q 609 279 585 310 q 633 215 633 249 q 544 92 633 139 q 297 46 454 46 z "},"g":{"ha":1111,"x_min":28,"x_max":1083,"o":"m 550 82 q 377 96 451 82 q 264 128 303 110 q 201 174 225 147 q 172 219 178 200 q 165 257 165 238 q 189 365 165 285 q 213 464 213 446 q 171 519 213 482 q 129 588 129 556 q 165 661 129 613 q 200 761 200 710 q 173 833 200 792 q 114 913 146 875 q 55 1011 82 951 q 28 1131 28 1071 q 132 1344 28 1256 q 347 1432 236 1432 q 426 1415 392 1432 q 480 1376 461 1397 q 533 1338 499 1356 q 610 1321 567 1321 q 690 1354 654 1321 q 747 1427 726 1388 q 795 1500 767 1467 q 854 1533 824 1533 q 991 1470 926 1533 q 1056 1325 1056 1407 q 957 1178 1056 1178 q 901 1226 932 1178 q 833 1274 869 1274 q 784 1263 808 1274 q 760 1232 760 1253 q 778 1190 760 1213 q 821 1147 797 1167 q 863 1096 844 1128 q 882 1028 882 1064 q 803 901 882 953 q 640 849 725 849 q 521 873 582 849 q 440 897 460 897 q 373 880 403 897 q 343 843 343 863 q 350 806 343 831 q 357 767 357 781 q 311 711 357 754 q 265 646 265 668 q 411 565 265 565 q 490 589 454 565 q 556 647 526 613 q 618 715 585 681 q 706 772 651 749 q 831 796 760 796 q 881 793 856 796 q 945 776 906 790 q 1013 735 985 761 q 1062 658 1040 710 q 1083 538 1083 607 q 1010 311 1083 417 q 814 144 938 206 q 550 82 690 82 m 349 1207 q 374 1056 349 1103 q 461 1008 399 1008 q 515 1014 485 1008 q 563 1019 544 1019 q 590 1006 581 1019 q 603 978 600 993 q 621 949 607 963 q 658 936 635 936 q 713 943 690 936 q 747 960 736 950 q 763 985 757 969 q 770 1009 769 1000 q 771 1032 771 1018 q 756 1088 771 1061 q 714 1115 740 1115 q 699 1115 711 1115 q 678 1114 686 1114 q 656 1117 669 1114 q 635 1126 643 1119 q 622 1146 628 1132 q 615 1179 615 1160 q 596 1226 615 1207 q 546 1253 576 1246 q 495 1263 515 1261 q 456 1265 475 1265 q 385 1251 421 1265 q 349 1207 349 1238 m 633 433 q 659 394 633 413 q 685 365 685 375 q 670 333 685 354 q 656 300 656 313 q 710 264 656 264 q 785 301 763 264 q 807 389 807 339 q 819 429 807 413 q 848 453 832 446 q 876 474 864 460 q 889 507 889 488 q 867 567 889 535 q 803 599 846 599 q 689 534 744 599 q 633 433 633 469 z "},"h":{"ha":1001,"x_min":28,"x_max":974,"o":"m 218 42 q 81 103 135 42 q 28 299 28 165 q 58 423 28 363 q 123 521 88 483 q 188 604 158 558 q 218 688 218 650 q 199 773 218 724 q 156 869 179 822 q 113 1007 132 915 q 93 1210 93 1099 q 146 1373 93 1304 q 288 1442 199 1442 q 435 1408 354 1442 q 560 1375 517 1375 q 610 1393 590 1375 q 640 1433 631 1411 q 675 1474 650 1456 q 740 1492 700 1492 q 869 1428 818 1492 q 919 1279 919 1365 q 860 1119 919 1193 q 701 1019 801 1044 q 630 1003 682 1014 q 549 985 578 993 q 476 962 519 978 q 408 928 432 946 q 367 882 385 911 q 349 817 349 853 q 372 690 349 744 q 443 635 394 635 q 545 651 499 635 q 620 689 592 668 q 697 726 649 710 q 801 743 744 743 q 931 626 889 743 q 974 343 974 510 q 910 126 974 196 q 715 56 846 56 q 606 102 646 56 q 567 221 567 149 q 588 289 567 258 q 639 342 608 319 q 700 386 669 364 q 751 440 731 408 q 772 510 772 471 q 679 619 772 619 q 576 594 611 619 q 537 538 542 569 q 519 471 532 507 q 479 418 507 435 q 444 390 457 406 q 428 356 432 375 q 424 321 424 336 q 426 278 424 306 q 428 236 428 251 q 370 99 428 156 q 218 42 313 42 z "},"i":{"ha":997,"x_min":28,"x_max":969,"o":"m 781 33 q 564 93 656 33 q 472 235 472 153 q 542 474 472 281 q 593 693 608 663 q 578 703 589 703 q 524 669 557 703 q 455 588 492 636 q 376 492 418 540 q 281 411 333 444 q 176 378 228 378 q 67 419 106 378 q 28 567 28 461 q 55 723 28 651 q 123 841 82 794 q 213 920 164 888 q 305 967 263 953 q 379 982 347 982 q 422 980 406 982 q 458 970 439 978 q 486 944 476 963 q 496 896 496 925 q 538 807 496 835 q 667 779 579 779 q 715 769 694 779 q 747 735 735 758 q 766 690 758 711 q 776 627 774 668 q 780 562 779 586 q 781 490 781 538 q 781 481 781 483 q 794 385 781 422 q 829 335 808 349 q 875 311 850 322 q 921 292 900 300 q 956 260 942 285 q 969 194 969 236 q 912 82 969 131 q 781 33 854 33 m 197 1143 q 230 1218 197 1176 q 263 1286 263 1260 q 242 1352 263 1310 q 221 1442 221 1394 q 280 1549 221 1506 q 422 1593 339 1593 q 540 1555 490 1593 q 640 1444 590 1517 q 704 1357 690 1371 q 765 1317 726 1335 q 832 1290 803 1300 q 884 1251 861 1279 q 907 1176 907 1222 q 853 1001 907 1074 q 717 929 799 929 q 657 954 686 929 q 607 1009 628 979 q 553 1064 586 1039 q 485 1089 521 1089 q 415 1072 464 1089 q 308 1056 365 1056 q 232 1078 267 1056 q 197 1143 197 1100 z "},"j":{"ha":1035,"x_min":28,"x_max":1007,"o":"m 749 164 q 604 217 689 164 q 476 271 519 271 q 333 235 433 271 q 178 200 233 200 q 109 231 139 200 q 62 313 79 261 q 36 424 44 364 q 28 551 28 485 q 102 770 28 676 q 271 864 176 864 q 328 856 300 864 q 385 831 357 849 q 432 776 414 813 q 450 689 450 739 q 436 632 450 656 q 406 598 422 608 q 375 563 389 588 q 361 503 361 539 q 397 436 361 467 q 511 406 433 406 q 728 486 635 406 q 821 697 821 567 q 803 832 821 778 q 761 886 785 886 q 717 857 738 886 q 674 799 697 828 q 617 769 650 769 q 556 811 579 769 q 532 913 532 853 q 553 978 532 950 q 604 1019 574 1006 q 662 1040 635 1033 q 711 1046 689 1046 q 756 1027 738 1046 q 789 990 775 1008 q 818 971 803 971 q 862 988 838 971 q 904 1004 886 1004 q 979 903 951 1004 q 1007 636 1007 803 q 981 397 1007 501 q 895 228 954 293 q 749 164 836 164 m 108 1381 q 264 1524 108 1524 q 387 1483 306 1524 q 515 1442 468 1442 q 647 1477 560 1442 q 793 1513 735 1513 q 935 1470 882 1513 q 988 1336 988 1428 q 910 1166 988 1243 q 751 1089 833 1089 q 692 1107 717 1089 q 654 1147 667 1125 q 619 1186 642 1168 q 564 1204 596 1204 q 498 1181 532 1204 q 439 1128 464 1157 q 378 1075 414 1099 q 308 1051 343 1051 q 218 1086 258 1051 q 155 1174 178 1121 q 120 1281 132 1228 q 108 1381 108 1335 z "},"k":{"ha":1108,"x_min":28,"x_max":1081,"o":"m 760 44 q 606 115 660 44 q 553 283 553 185 q 585 383 553 333 q 655 467 617 433 q 725 542 693 500 q 757 621 757 585 q 756 656 757 643 q 747 688 754 668 q 720 717 739 707 q 671 726 701 726 q 546 619 606 726 q 486 389 486 511 q 403 169 486 263 q 196 75 319 75 q 153 81 174 75 q 109 105 133 86 q 68 154 85 124 q 40 240 51 185 q 28 368 28 294 q 49 491 28 438 q 104 573 71 544 q 175 626 138 601 q 246 666 213 650 q 301 706 279 682 q 322 761 322 731 q 250 1049 322 825 q 178 1353 178 1274 q 232 1531 178 1467 q 378 1594 286 1594 q 505 1531 463 1594 q 547 1372 547 1467 q 524 1237 547 1317 q 476 1094 500 1157 q 440 974 453 1032 q 449 883 426 915 q 539 851 472 851 q 708 930 635 851 q 782 1060 782 1008 q 751 1153 782 1075 q 721 1313 721 1232 q 795 1479 721 1411 q 951 1547 869 1547 q 1081 1346 1081 1547 q 1038 1174 1081 1258 q 944 1038 994 1090 q 850 930 893 985 q 807 838 807 875 q 826 797 807 813 q 870 774 846 781 q 914 752 894 768 q 933 710 933 736 q 864 558 933 671 q 815 447 807 467 q 838 436 819 436 q 901 450 844 436 q 988 464 958 464 q 1052 436 1026 464 q 1078 368 1078 408 q 976 138 1078 231 q 760 44 875 44 z "},"l":{"ha":1014,"x_min":28,"x_max":986,"o":"m 736 75 q 638 93 681 75 q 574 133 594 111 q 525 174 553 156 q 468 192 497 192 q 372 163 443 192 q 240 133 301 133 q 79 192 131 133 q 28 369 28 251 q 51 486 28 428 q 108 589 75 544 q 175 672 142 633 q 232 742 208 710 q 256 793 256 774 q 233 834 256 813 q 179 883 211 856 q 115 949 147 911 q 61 1052 83 986 q 39 1203 39 1118 q 124 1528 39 1413 q 311 1643 210 1643 q 387 1623 357 1643 q 456 1547 417 1603 q 482 1519 467 1532 q 510 1499 497 1507 q 547 1484 524 1490 q 582 1475 571 1478 q 623 1471 593 1472 q 661 1469 653 1469 q 703 1469 669 1469 q 742 1469 738 1469 q 925 1238 925 1469 q 881 1104 925 1174 q 772 977 838 1035 q 630 855 707 919 q 488 735 553 790 q 378 615 422 679 q 335 493 335 550 q 347 413 335 446 q 377 362 360 379 q 420 335 394 344 q 464 324 446 326 q 506 322 482 322 q 653 408 653 322 q 635 498 653 446 q 618 592 618 550 q 669 710 618 657 q 797 764 721 764 q 932 679 878 764 q 986 461 986 594 q 911 197 986 319 q 736 75 836 75 z "},"m":{"ha":1574,"x_min":28,"x_max":1546,"o":"m 1338 49 q 1199 118 1254 49 q 1144 313 1144 188 q 1160 431 1144 378 q 1176 551 1176 485 q 1138 707 1176 647 q 1049 767 1099 767 q 972 734 1003 767 q 940 654 940 701 q 990 481 940 629 q 1039 274 1039 333 q 970 143 1039 197 q 826 89 901 89 q 702 159 758 89 q 646 311 646 229 q 685 479 646 358 q 725 692 725 600 q 669 866 725 806 q 553 926 614 926 q 453 894 499 926 q 408 789 408 863 q 463 604 408 740 q 518 379 518 468 q 417 156 518 254 q 186 58 315 58 q 28 251 28 58 q 63 422 28 328 q 140 590 99 517 q 217 741 182 663 q 253 867 253 819 q 217 1062 253 935 q 182 1285 182 1189 q 253 1487 182 1411 q 406 1563 325 1563 q 492 1541 467 1563 q 519 1468 518 1519 q 599 1319 521 1319 q 634 1317 619 1319 q 669 1305 649 1314 q 699 1272 689 1296 q 710 1211 710 1249 q 701 1135 710 1188 q 693 1024 693 1083 q 734 867 693 935 q 849 800 775 800 q 999 888 928 800 q 1069 1074 1069 976 q 1044 1172 1069 1118 q 1019 1268 1019 1226 q 1070 1394 1019 1342 q 1228 1447 1121 1447 q 1449 1344 1351 1447 q 1546 1081 1546 1242 q 1509 921 1546 1004 q 1428 778 1472 838 q 1347 659 1383 719 q 1310 564 1310 599 q 1342 489 1310 528 q 1415 421 1375 450 q 1487 351 1454 392 q 1519 271 1519 310 q 1467 115 1519 181 q 1338 49 1415 49 z "},"n":{"ha":901,"x_min":28,"x_max":874,"o":"m 228 110 q 73 183 118 110 q 28 433 28 256 q 63 647 28 543 q 139 813 97 750 q 215 939 181 875 q 250 1042 250 1003 q 222 1153 250 1100 q 194 1283 194 1207 q 247 1442 194 1385 q 358 1500 300 1500 q 455 1444 415 1500 q 513 1310 494 1389 q 544 1151 531 1231 q 576 1017 558 1072 q 621 961 594 961 q 663 979 649 961 q 676 1049 676 997 q 653 1166 676 1094 q 606 1299 631 1238 q 565 1417 582 1360 q 563 1507 549 1474 q 632 1540 578 1540 q 729 1514 686 1540 q 799 1446 772 1488 q 842 1350 825 1404 q 867 1245 860 1296 q 874 1144 874 1194 q 827 931 874 1061 q 781 754 781 801 q 821 588 781 706 q 861 393 861 469 q 810 219 861 285 q 676 153 760 153 q 558 231 600 153 q 515 393 515 308 q 534 576 515 493 q 572 719 553 660 q 590 824 590 779 q 532 994 590 910 q 411 1079 474 1079 q 322 1013 351 1079 q 293 849 293 946 q 360 622 293 796 q 426 364 426 449 q 368 179 426 249 q 228 110 310 110 z "},"o":{"ha":990,"x_min":28,"x_max":963,"o":"m 438 4 q 56 388 56 4 q 97 637 56 499 q 139 833 139 775 q 111 957 139 888 q 56 1108 83 1026 q 28 1275 28 1190 q 165 1524 28 1424 q 508 1624 303 1624 q 647 1613 579 1624 q 788 1578 715 1603 q 903 1502 860 1554 q 947 1376 947 1450 q 917 1233 947 1307 q 852 1108 888 1160 q 787 994 817 1057 q 757 879 757 931 q 789 771 757 833 q 860 653 821 708 q 931 513 899 597 q 963 342 963 428 q 908 200 963 267 q 774 92 854 133 q 603 28 693 51 q 438 4 514 4 m 294 1024 q 335 921 294 950 q 418 892 376 892 q 496 862 471 892 q 521 797 521 832 q 500 746 521 779 q 479 697 479 713 q 543 649 479 649 q 630 699 593 649 q 667 814 667 750 q 633 903 667 856 q 600 994 600 950 q 632 1054 600 1024 q 701 1108 664 1085 q 771 1165 739 1131 q 803 1236 803 1200 q 756 1369 803 1318 q 629 1421 708 1421 q 472 1376 542 1421 q 367 1263 403 1331 q 313 1134 331 1196 q 294 1024 294 1072 z "},"p":{"ha":1094,"x_min":17,"x_max":1067,"o":"m 231 28 q 54 264 54 28 q 108 567 54 367 q 163 867 163 767 q 135 1005 163 919 q 79 1165 107 1090 q 34 1311 51 1240 q 40 1424 17 1382 q 135 1465 63 1465 q 236 1446 193 1465 q 299 1403 279 1426 q 350 1360 319 1379 q 417 1340 381 1340 q 493 1363 453 1340 q 565 1410 533 1385 q 644 1458 596 1436 q 744 1481 693 1481 q 860 1458 804 1481 q 963 1388 915 1435 q 1038 1258 1010 1340 q 1067 1068 1067 1176 q 1052 903 1067 988 q 1008 740 1038 818 q 928 613 979 663 q 811 564 876 564 q 710 587 753 564 q 648 644 668 610 q 610 719 628 679 q 579 794 592 760 q 542 852 567 829 q 482 875 517 875 q 417 831 442 875 q 393 722 393 786 q 424 618 393 667 q 490 539 454 569 q 557 462 526 508 q 588 364 588 415 q 585 344 588 353 q 581 331 582 336 q 571 319 579 326 q 560 310 563 313 q 544 299 557 307 q 528 289 532 292 q 435 146 463 247 q 364 60 419 93 q 231 28 308 28 m 294 1115 q 313 1059 294 1081 q 361 1038 331 1038 q 407 1056 383 1038 q 452 1096 431 1074 q 518 1136 474 1118 q 619 1154 563 1154 q 651 1123 647 1154 q 648 1053 656 1092 q 651 984 640 1015 q 704 953 663 953 q 788 1010 763 953 q 813 1151 813 1068 q 763 1260 813 1218 q 649 1301 714 1301 q 594 1281 622 1301 q 544 1237 565 1261 q 488 1192 522 1213 q 418 1172 454 1172 q 383 1180 406 1172 q 350 1188 361 1188 q 313 1167 331 1188 q 294 1115 294 1147 z "},"q":{"ha":950,"x_min":28,"x_max":922,"o":"m 286 94 q 167 126 219 94 q 85 208 114 158 q 42 312 57 258 q 28 418 28 365 q 81 637 28 485 q 133 843 133 789 q 94 1001 133 890 q 54 1217 54 1113 q 169 1481 54 1369 q 488 1593 285 1593 q 807 1476 692 1593 q 922 1186 922 1358 q 901 978 922 1065 q 849 847 879 892 q 789 769 819 801 q 737 706 758 738 q 715 635 715 674 q 737 584 715 606 q 789 544 758 563 q 849 505 819 526 q 901 444 879 483 q 922 350 922 404 q 868 209 922 253 q 754 165 814 165 q 625 275 625 165 q 644 376 625 317 q 663 456 663 436 q 635 532 663 496 q 561 568 607 568 q 491 527 518 568 q 464 454 464 486 q 483 365 464 414 q 503 254 503 315 q 441 143 503 192 q 286 94 379 94 m 218 871 q 234 726 218 772 q 290 679 250 679 q 347 707 311 679 q 400 735 383 735 q 438 711 415 735 q 488 688 461 688 q 538 703 513 688 q 563 753 563 719 q 533 801 563 779 q 467 836 503 822 q 401 878 431 850 q 371 942 371 906 q 392 1013 371 982 q 444 1043 414 1043 q 501 1017 472 1043 q 551 959 531 990 q 594 901 571 928 q 635 875 617 875 q 699 913 675 875 q 722 1010 722 951 q 659 1160 722 1078 q 506 1243 596 1243 q 310 1133 401 1243 q 218 871 218 1022 z "},"r":{"ha":1103,"x_min":28,"x_max":1075,"o":"m 225 61 q 124 83 164 61 q 63 149 83 106 q 35 240 43 192 q 28 353 28 288 q 56 542 28 449 q 116 698 83 636 q 176 828 149 760 q 204 947 204 897 q 181 1047 204 994 q 131 1142 158 1100 q 80 1248 103 1185 q 57 1376 57 1311 q 163 1561 57 1561 q 218 1538 190 1561 q 266 1488 246 1515 q 317 1438 286 1461 q 382 1415 349 1415 q 452 1435 414 1415 q 521 1478 490 1454 q 603 1521 551 1501 q 713 1540 656 1540 q 838 1518 781 1540 q 946 1447 896 1496 q 1024 1307 996 1397 q 1053 1092 1053 1217 q 1026 926 1053 994 q 955 820 999 857 q 866 758 911 783 q 772 701 821 732 q 699 636 724 671 q 658 511 651 565 q 692 424 665 457 q 742 390 719 390 q 777 417 753 390 q 825 474 801 443 q 878 532 849 506 q 928 558 907 558 q 1027 503 979 558 q 1075 367 1075 449 q 999 187 1075 272 q 813 101 922 101 q 677 131 731 101 q 603 208 624 160 q 572 317 582 256 q 567 441 563 378 q 572 565 572 504 q 566 674 571 626 q 534 751 561 722 q 457 781 507 781 q 369 747 397 781 q 340 667 340 714 q 372 552 340 610 q 434 434 403 494 q 465 308 465 374 q 396 128 465 196 q 225 61 326 61 m 306 1146 q 349 1006 306 1054 q 507 957 392 957 q 594 938 563 957 q 635 895 626 918 q 665 853 644 872 q 719 833 685 833 q 792 864 768 833 q 815 938 815 894 q 784 1008 815 974 q 716 1066 753 1043 q 648 1118 679 1089 q 617 1171 617 1147 q 660 1211 617 1201 q 746 1228 703 1221 q 789 1261 789 1236 q 708 1342 789 1306 q 535 1378 626 1378 q 376 1303 447 1378 q 306 1146 306 1229 z "},"s":{"ha":1056,"x_min":28,"x_max":1028,"o":"m 260 69 q 131 119 185 69 q 53 236 76 169 q 31 372 31 303 q 44 490 31 431 q 87 607 58 550 q 167 700 115 664 q 288 736 219 736 q 409 699 360 736 q 483 610 458 663 q 528 506 508 558 q 580 417 549 454 q 656 381 611 381 q 760 423 711 381 q 808 531 808 465 q 783 656 808 604 q 717 731 757 707 q 638 768 676 756 q 565 787 600 781 q 522 797 529 793 q 481 851 508 806 q 422 911 453 896 q 331 940 390 928 q 224 967 271 953 q 129 1013 176 981 q 55 1114 82 1044 q 28 1290 28 1183 q 81 1473 28 1399 q 253 1547 135 1547 q 481 1510 350 1547 q 632 1474 611 1474 q 730 1492 665 1474 q 833 1511 794 1511 q 931 1485 897 1511 q 964 1388 964 1460 q 986 1278 964 1357 q 1008 1154 1008 1199 q 952 998 1008 1069 q 825 926 896 926 q 763 956 789 926 q 729 1016 738 986 q 721 1067 721 1046 q 735 1115 721 1096 q 768 1143 750 1135 q 801 1166 786 1151 q 815 1201 815 1181 q 788 1279 815 1250 q 711 1308 761 1308 q 663 1307 682 1308 q 613 1297 644 1306 q 561 1270 581 1288 q 526 1217 542 1253 q 511 1131 511 1181 q 581 926 511 992 q 819 861 650 861 q 971 748 914 861 q 1028 476 1028 635 q 967 215 1028 322 q 811 108 907 108 q 688 144 758 108 q 575 181 617 181 q 431 125 536 181 q 260 69 326 69 z "},"t":{"ha":1106,"x_min":28,"x_max":1078,"o":"m 707 76 q 621 111 667 76 q 550 146 575 146 q 456 121 525 146 q 343 96 386 96 q 242 133 281 96 q 204 282 204 169 q 248 458 204 347 q 345 668 292 569 q 442 864 399 767 q 486 1001 486 961 q 459 1180 486 1104 q 381 1256 432 1256 q 313 1207 313 1256 q 329 1125 313 1172 q 346 1057 346 1078 q 315 973 346 1010 q 203 936 285 936 q 119 972 154 936 q 64 1069 83 1008 q 36 1197 44 1129 q 28 1339 28 1264 q 100 1551 28 1469 q 256 1633 172 1633 q 422 1578 308 1633 q 571 1524 536 1524 q 706 1544 603 1524 q 879 1564 808 1564 q 1026 1476 975 1564 q 1078 1228 1078 1389 q 1026 960 1078 1074 q 915 847 975 847 q 861 866 882 847 q 824 917 840 885 q 796 961 807 950 q 760 992 789 969 q 718 1036 731 1014 q 706 1096 706 1058 q 719 1198 706 1114 q 724 1329 732 1282 q 674 1376 717 1376 q 608 1344 633 1376 q 582 1260 582 1311 q 607 1119 582 1232 q 632 939 632 1006 q 617 840 632 908 q 588 706 603 772 q 565 574 574 639 q 572 467 557 508 q 628 426 586 426 q 705 449 661 426 q 771 471 749 471 q 852 417 825 471 q 879 285 879 363 q 828 143 879 210 q 707 76 778 76 z "},"u":{"ha":1111,"x_min":28,"x_max":1083,"o":"m 314 79 q 190 107 244 79 q 106 174 136 135 q 58 263 76 213 q 33 349 39 313 q 28 414 28 385 q 49 565 28 492 q 94 685 69 638 q 140 794 119 732 q 161 917 161 857 q 141 1131 161 983 q 121 1322 121 1278 q 124 1394 121 1364 q 138 1454 128 1424 q 169 1501 147 1485 q 225 1517 192 1517 q 391 1468 331 1517 q 451 1322 451 1419 q 419 1220 451 1278 q 348 1113 386 1163 q 277 994 310 1064 q 244 863 244 925 q 273 701 244 779 q 363 567 301 622 q 507 513 425 513 q 661 577 607 513 q 715 724 715 642 q 682 868 715 792 q 615 1022 649 944 q 582 1175 582 1100 q 663 1440 582 1313 q 839 1567 743 1567 q 1010 1446 936 1567 q 1083 1179 1083 1325 q 1022 926 1083 1083 q 961 678 961 768 q 1006 463 961 582 q 1050 276 1050 344 q 1038 191 1050 233 q 990 114 1025 149 q 906 79 956 79 q 838 97 869 79 q 787 134 806 114 q 747 172 768 154 q 707 189 725 189 q 631 161 688 189 q 490 106 575 133 q 314 79 406 79 z "},"v":{"ha":1117,"x_min":28,"x_max":1089,"o":"m 486 88 q 379 108 425 88 q 306 167 333 128 q 260 253 278 207 q 230 367 242 300 q 211 493 218 433 q 193 632 204 553 q 168 771 182 711 q 87 1062 146 868 q 28 1342 28 1256 q 88 1511 28 1451 q 247 1571 147 1571 q 431 1501 356 1571 q 507 1286 507 1432 q 465 1122 507 1210 q 380 951 422 1035 q 338 801 338 867 q 475 622 338 622 q 558 672 525 622 q 607 800 590 721 q 637 975 624 879 q 667 1167 650 1071 q 708 1343 683 1264 q 782 1472 733 1422 q 900 1521 831 1521 q 1004 1482 963 1521 q 1063 1381 1046 1443 q 1084 1278 1079 1319 q 1089 1194 1089 1236 q 1063 999 1089 1092 q 1003 853 1036 907 q 928 729 971 799 q 868 615 886 660 q 837 522 856 585 q 803 408 818 460 q 758 294 788 356 q 695 189 729 232 q 607 117 661 146 q 486 88 553 88 z "},"w":{"ha":1103,"x_min":28,"x_max":1075,"o":"m 238 49 q 81 145 133 49 q 28 389 28 242 q 61 553 28 465 q 128 724 94 640 q 163 872 163 807 q 110 1069 163 950 q 58 1271 58 1188 q 168 1514 58 1396 q 399 1632 278 1632 q 548 1567 489 1632 q 607 1364 607 1503 q 565 1171 607 1278 q 471 981 522 1064 q 377 809 419 899 q 335 665 335 719 q 365 553 335 597 q 457 510 394 510 q 540 534 510 510 q 571 589 571 558 q 552 633 571 601 q 514 710 533 664 q 494 806 494 756 q 516 876 494 838 q 575 915 538 915 q 641 885 614 915 q 668 829 668 856 q 651 754 668 799 q 633 692 633 710 q 701 621 633 621 q 780 666 749 621 q 811 778 811 711 q 775 874 811 813 q 702 1013 739 935 q 665 1169 665 1092 q 727 1308 665 1238 q 872 1379 789 1379 q 1016 1305 957 1379 q 1075 1144 1075 1231 q 1023 881 1075 1093 q 971 601 971 668 q 988 440 971 542 q 1006 251 1006 339 q 951 120 1006 164 q 819 76 896 76 q 743 98 778 76 q 683 150 708 119 q 633 211 658 181 q 574 263 608 242 q 499 285 540 285 q 419 248 449 285 q 376 167 389 211 q 329 85 364 122 q 238 49 294 49 z "},"x":{"ha":1125,"x_min":28,"x_max":1097,"o":"m 301 111 q 103 189 179 111 q 28 367 28 267 q 58 526 28 467 q 131 586 88 586 q 192 559 154 586 q 268 539 229 532 q 321 582 299 544 q 364 665 343 619 q 408 728 385 711 q 467 758 428 742 q 524 791 506 775 q 542 833 542 807 q 498 916 542 879 q 393 953 454 953 q 308 943 367 953 q 208 933 250 933 q 153 938 175 933 q 101 962 131 943 q 55 1028 71 981 q 39 1151 39 1076 q 122 1433 39 1310 q 308 1557 206 1557 q 458 1508 396 1557 q 521 1371 521 1460 q 504 1283 521 1344 q 488 1189 488 1222 q 517 1095 488 1142 q 601 1049 547 1049 q 729 1135 683 1049 q 775 1353 775 1222 q 825 1507 775 1453 q 942 1561 875 1561 q 1061 1483 1025 1561 q 1097 1293 1097 1406 q 1061 1120 1097 1189 q 974 1023 1025 1051 q 873 978 924 994 q 786 947 822 963 q 750 903 750 931 q 775 849 750 879 q 838 788 800 818 q 920 713 876 757 q 1002 624 964 669 q 1065 516 1040 579 q 1090 385 1090 453 q 1047 221 1090 294 q 910 147 1004 147 q 750 223 810 147 q 690 401 690 299 q 693 458 690 425 q 697 515 696 490 q 699 567 699 539 q 696 616 700 596 q 683 653 692 636 q 656 678 675 669 q 611 688 638 688 q 521 652 564 688 q 478 569 478 617 q 516 446 478 540 q 554 304 554 351 q 477 173 554 235 q 301 111 400 111 z "},"y":{"ha":1136,"x_min":28,"x_max":1108,"o":"m 219 42 q 76 83 125 42 q 28 196 28 124 q 67 307 28 265 q 164 349 107 349 q 203 346 182 349 q 238 344 224 343 q 278 356 253 346 q 465 706 465 428 q 449 828 465 779 q 399 903 432 876 q 333 944 367 929 q 249 983 299 960 q 164 1032 199 1006 q 77 1134 101 1079 q 53 1294 53 1189 q 97 1450 53 1394 q 196 1506 142 1506 q 248 1488 222 1506 q 306 1463 274 1469 q 352 1455 311 1461 q 415 1440 393 1449 q 468 1413 436 1432 q 515 1356 500 1393 q 531 1265 531 1319 q 494 1142 531 1211 q 458 1025 458 1072 q 497 917 458 957 q 585 878 536 878 q 649 908 625 878 q 672 976 672 939 q 631 1056 672 1010 q 589 1151 589 1101 q 699 1402 589 1294 q 933 1510 808 1510 q 1058 1472 1008 1510 q 1108 1354 1108 1433 q 1078 1214 1108 1283 q 1001 1090 1047 1144 q 903 967 956 1036 q 804 830 850 899 q 728 659 758 761 q 697 442 697 557 q 683 340 697 379 q 644 285 669 301 q 592 263 618 269 q 532 249 567 256 q 476 231 497 242 q 440 193 454 218 q 415 143 425 168 q 388 94 406 118 q 328 56 371 71 q 219 42 286 42 z "},"z":{"ha":1086,"x_min":28,"x_max":1058,"o":"m 867 85 q 760 104 840 85 q 601 124 681 124 q 451 105 542 124 q 278 86 361 86 q 272 86 276 86 q 230 88 247 86 q 179 101 213 89 q 125 135 146 113 q 87 205 104 157 q 69 319 69 253 q 110 490 69 406 q 210 640 150 575 q 342 772 271 704 q 473 895 413 840 q 574 1014 533 950 q 614 1136 614 1078 q 567 1287 614 1242 q 449 1332 521 1332 q 380 1317 407 1332 q 353 1274 353 1303 q 371 1197 353 1251 q 389 1113 389 1142 q 338 1019 389 1065 q 213 972 286 972 q 85 1044 143 972 q 28 1261 28 1117 q 92 1481 28 1403 q 219 1558 156 1558 q 342 1528 253 1558 q 506 1499 431 1499 q 679 1528 572 1499 q 858 1557 786 1557 q 1008 1491 957 1557 q 1058 1338 1058 1425 q 1023 1176 1058 1258 q 930 1024 988 1094 q 803 883 872 953 q 666 749 735 813 q 540 629 597 686 q 447 517 482 572 q 411 419 411 463 q 525 297 411 297 q 592 318 557 297 q 660 369 626 339 q 732 431 694 400 q 820 482 769 461 q 926 503 871 503 q 1017 456 982 503 q 1051 326 1051 408 q 994 163 1051 242 q 867 85 938 85 z "}}}
